PathFileType	4	(X/Y/Z)	/Users/itak/Documents/Research/Walk-IL/dataset/trc/00243_00009.trc
DataRate	CameraRate	NumFrames	NumMarkers	Units	OrigDataRate	OrigDataStartFrame	OrigNumFrames
100.000000	100.000000	4	53	mm	100.000000	310	827
Frame#	Time	RPSI			LPSI			L3			STRN			T10			C7			CLAV			RBAK			LBAK			LSHO			LUPA			LAEL			LAOL			LWTS			LWPS			LFRA			LIFD			LHPS			LHTS			RSHO			RUPA			RAEL			RAOL			RWTS			RWPS			RFRA			RIFD			RHTS			RHPS			RBHD			LFHD			RFHD			LBHD			LHIP			RHIP			RASI			LASI			LKNE			LTHI			LANK			LTIP			LTOE			LMT1			LHEE			RKNE			RTHI			RANK			RTIP			RTOE			RMT1			RMT5			RHEE			LMT5			
		X1	Y1	Z1	X2	Y2	Z2	X3	Y3	Z3	X4	Y4	Z4	X5	Y5	Z5	X6	Y6	Z6	X7	Y7	Z7	X8	Y8	Z8	X9	Y9	Z9	X10	Y10	Z10	X11	Y11	Z11	X12	Y12	Z12	X13	Y13	Z13	X14	Y14	Z14	X15	Y15	Z15	X16	Y16	Z16	X17	Y17	Z17	X18	Y18	Z18	X19	Y19	Z19	X20	Y20	Z20	X21	Y21	Z21	X22	Y22	Z22	X23	Y23	Z23	X24	Y24	Z24	X25	Y25	Z25	X26	Y26	Z26	X27	Y27	Z27	X28	Y28	Z28	X29	Y29	Z29	X30	Y30	Z30	X31	Y31	Z31	X32	Y32	Z32	X33	Y33	Z33	X34	Y34	Z34	X35	Y35	Z35	X36	Y36	Z36	X37	Y37	Z37	X38	Y38	Z38	X39	Y39	Z39	X40	Y40	Z40	X41	Y41	Z41	X42	Y42	Z42	X43	Y43	Z43	X44	Y44	Z44	X45	Y45	Z45	X46	Y46	Z46	X47	Y47	Z47	X48	Y48	Z48	X49	Y49	Z49	X50	Y50	Z50	X51	Y51	Z51	X52	Y52	Z52	X53	Y53	Z53	

311	3.1	-514.7118530273438	1021.824890136719	168.3296356201172	-633.2216186523438	1030.32470703125	143.0218811035156	-581.677001953125	1112.829223632812	156.3548583984375	-528.9909057617188	1283.442138671875	-93.25316619873047	-566.383056640625	1239.413208007812	161.0685272216797	-546.2537231445312	1498.10791015625	85.30142211914062	-525.5136108398438	1402.01708984375	-72.86399841308594	-491.1355590820312	1360.338989257812	180.2701873779297	-658.8683471679688	1465.025512695312	91.30384063720703	-701.7760620117188	1463.108642578125	-5.216924667358398	-793.109130859375	1354.843139648438	21.98897552490234	-849.4000854492188	1151.624389648438	18.62387657165527	-809.7138061523438	1131.844970703125	95.14462280273438	-807.4191284179688	915.3522338867188	-71.20816802978516	-891.3717041015625	907.473876953125	-54.96158981323242	-872.9950561523438	1046.808715820312	-6.304101943969727	-841.994140625	722.2396850585938	-89.60451507568359	-897.0632934570312	820.75927734375	-76.04948425292969	-838.1455078125	819.237548828125	-111.6650390625	-373.1461791992188	1445.73291015625	54.40018081665039	-311.8359375	1380.760375976562	86.97354888916016	-280.3172912597656	1101.635864257812	124.8351745605469	-372.6315002441406	1096.314208984375	149.8618316650391	-309.8858947753906	884.7772216796875	-10.52443599700928	-251.3272552490234	872.2316284179688	49.24854278564453	-265.4616088867188	1032.369140625	101.7284240722656	-307.3475646972656	689.0158081054688	-21.98891258239746	-288.9688720703125	762.9854736328125	-43.86149597167969	-244.4301910400391	765.3087158203125	13.27968215942383	-495.9659423828125	1657.21484375	29.9020881652832	-497.2035217285156	1659.736083984375	-197.1937866210938	-406.17578125	1654.894897460938	-155.4122009277344	-597.623779296875	1660.049438476562	-66.85984039306641	-744.9998168945312	976.1915283203125	6.782260894775391	-389.3193664550781	975.0260009765625	99.25171661376953	-399.5971069335938	1019.897399902344	-4.408033847808838	-670.7212524414062	1016.703979492188	-73.81889343261719	-650.0376586914062	520.6519165039062	-163.1974487304688	-698.9776611328125	650.4580688476562	-117.8540878295898	-661.8660278320312	36.55332565307617	-188.1172637939453	-663.9191284179688	290.6241149902344	-177.8085174560547	-496.3370056152344	48.9956169128418	-336.2662658691406	-497.9383239746094	44.75674819946289	-255.3955993652344	-650.8812255859375	44.06135177612305	-108.5935897827148	-468.54248046875	492.9361572265625	112.3545150756836	-392.5863037109375	747.802490234375	58.38549041748047	-539.9395751953125	58.6806526184082	335.3304138183594	-501.8875427246094	374.4561767578125	138.684814453125	-621.3379516601562	43.24963760375977	138.0834503173828	-651.1533203125	45.97589492797852	201.314697265625	-534.4506225585938	40.6328010559082	224.1536407470703	-585.192138671875	78.49176788330078	406.6347045898438	-603.569091796875	34.68952560424805	-303.0241088867188	
312	3.11	-515.6810913085938	1022.587280273438	161.460205078125	-633.9318237304688	1031.2705078125	135.0278167724609	-582.8513793945312	1113.58056640625	149.0156402587891	-527.1364135742188	1284.473999023438	-99.82515716552734	-568.4210815429688	1240.34033203125	153.6666870117188	-547.7550659179688	1499.144775390625	78.50257873535156	-524.08642578125	1403.052490234375	-79.30698394775391	-494.0372314453125	1361.363159179688	174.3013763427734	-660.44921875	1465.850219726562	82.51829528808594	-701.609375	1463.8115234375	-14.78347969055176	-793.3130493164062	1355.38427734375	10.17676448822021	-849.2159423828125	1152.067504882812	4.434010982513428	-811.01123046875	1131.887451171875	81.69891357421875	-805.2909545898438	916.1693725585938	-85.58823394775391	-889.6621704101562	908.27294921875	-71.01268768310547	-872.2174072265625	1047.360595703125	-21.37157821655273	-839.6704711914062	723.1320190429688	-105.325325012207	-894.9295654296875	821.6095581054688	-92.56260681152344	-835.2657470703125	820.2049560546875	-126.9543838500977	-373.9705505371094	1447.016479492188	50.5189094543457	-313.1640014648438	1382.11181640625	84.24146270751953	-282.1912841796875	1103.196655273438	123.4631729125977	-375.0845031738281	1097.715454101562	146.1746063232422	-307.3386840820312	885.43896484375	-11.3333158493042	-250.3696136474609	873.5309448242188	50.12673950195312	-266.5374755859375	1033.932006835938	101.1484146118164	-303.4244689941406	689.587646484375	-21.45780181884766	-284.9405517578125	763.5450439453125	-43.26082229614258	-241.9568939208984	766.4271240234375	15.03467559814453	-496.4746398925781	1658.30322265625	23.67621421813965	-494.8265380859375	1660.656494140625	-203.3985137939453	-404.2982177734375	1655.908081054688	-160.4796447753906	-596.8601684570312	1660.997680664062	-74.34551239013672	-744.272705078125	977.2445678710938	-2.454569339752197	-389.7264709472656	975.7242431640625	93.62562561035156	-399.1666870117188	1020.655944824219	-9.878885269165039	-669.3005981445312	1017.868469238281	-82.27117156982422	-648.5806274414062	521.4414672851562	-169.9329223632812	-697.169189453125	651.5694580078125	-125.5195236206055	-661.96826171875	36.45773315429688	-188.5852813720703	-663.2633666992188	290.7551574707031	-181.9097595214844	-496.1073608398438	47.05917358398438	-337.0537719726562	-497.9001770019531	44.01271820068359	-256.0018920898438	-651.062744140625	44.4821891784668	-109.1601028442383	-467.7988586425781	493.4499816894531	105.1319427490234	-392.5730590820312	748.5307006835938	52.46463775634766	-540.0137939453125	61.54241180419922	334.2427978515625	-500.8841552734375	374.88818359375	132.4422149658203	-621.3341674804688	43.245849609375	137.7900085449219	-651.1978149414062	46.88737106323242	200.6219940185547	-534.556640625	40.85388565063477	223.6260681152344	-585.3167114257812	83.58602142333984	404.9041748046875	-603.9095458984375	34.08306884765625	-303.7431335449219	
313	3.12	-516.6085205078125	1023.480163574219	154.5836029052734	-634.5693359375	1032.30126953125	127.0202026367188	-583.9859008789062	1114.507080078125	141.6842041015625	-525.285400390625	1285.653442382812	-106.3642349243164	-570.3681640625	1241.407836914062	146.2309112548828	-549.1781616210938	1500.30712890625	71.68843078613281	-522.6590576171875	1404.233032226562	-85.73561096191406	-496.8272399902344	1362.53662109375	168.2835693359375	-661.9354248046875	1466.8125	73.74417114257812	-701.3424072265625	1464.68212890625	-24.28384017944336	-793.4005737304688	1356.103271484375	-1.593981385231018	-848.7846069335938	1152.68408203125	-9.737131118774414	-812.0917358398438	1132.098022460938	68.22936248779297	-802.8200073242188	917.22509765625	-100.0365829467773	-887.5491333007812	909.25830078125	-87.10886383056641	-871.1361694335938	1048.089111328125	-36.460205078125	-836.848876953125	724.2451782226562	-121.1464691162109	-892.3284301757812	822.6478881835938	-109.1366806030273	-831.964599609375	821.402587890625	-142.3055572509766	-374.7972717285156	1448.447998046875	46.54441070556641	-314.498046875	1383.630981445312	81.37744903564453	-284.0975646972656	1104.92919921875	121.9969482421875	-377.4986877441406	1099.29541015625	142.3748626708984	-304.9091491699219	886.3271484375	-12.17691802978516	-249.5862884521484	875.0203857421875	50.92714309692383	-267.6837463378906	1035.672485351562	100.4824142456055	-299.7637329101562	690.3863525390625	-20.92806053161621	-281.1318969726562	764.328857421875	-42.66664886474609	-239.7260894775391	767.7496948242188	16.7415828704834	-496.9293212890625	1659.51904296875	17.45506286621094	-492.3971862792969	1661.680786132812	-209.566162109375	-402.3954467773438	1657.023803710938	-165.5145263671875	-596.0355224609375	1662.068481445312	-81.81697845458984	-743.405517578125	978.2706909179688	-11.79706954956055	-390.0869445800781	976.612548828125	87.97989654541016	-398.6782531738281	1021.625610351562	-15.38625240325928	-667.898193359375	1019.12841796875	-90.69559478759766	-647.3549194335938	522.1712036132812	-176.3752593994141	-695.4851684570312	652.6978759765625	-132.98388671875	-662.1193237304688	36.34718322753906	-188.9037933349609	-662.7709350585938	290.8775939941406	-185.6312561035156	-496.1119384765625	45.79756546020508	-337.6043395996094	-497.9718933105469	43.64343643188477	-256.4399719238281	-651.2694702148438	44.74216079711914	-109.5746307373047	-466.7127990722656	494.0068359375	97.45250701904297	-392.4918823242188	749.4153442382812	46.42189788818359	-540.0070190429688	64.64127349853516	332.9587707519531	-499.5139770507812	375.3780822753906	125.7955856323242	-621.357177734375	43.25419998168945	137.5289154052734	-651.239013671875	47.90813064575195	199.9005584716797	-534.668701171875	41.0606803894043	223.0120391845703	-585.3258056640625	89.11006927490234	402.814453125	-604.340576171875	33.79060745239258	-304.2665405273438	
314	3.13	-517.5413818359375	1024.484008789062	147.7260894775391	-635.1744384765625	1033.388671875	118.9846954345703	-585.1181030273438	1115.579711914062	134.3483276367188	-523.4329833984375	1286.953369140625	-112.8641738891602	-572.2435913085938	1242.583740234375	138.7806396484375	-550.5219116210938	1501.559814453125	64.86740112304688	-521.2368774414062	1405.53173828125	-92.14289093017578	-499.5123596191406	1363.828247070312	162.2278442382812	-663.3275756835938	1467.879028320312	64.99322509765625	-700.9793090820312	1465.693359375	-33.70308303833008	-793.3739624023438	1356.973754882812	-13.29553031921387	-848.1173095703125	1153.452880859375	-23.85831451416016	-812.9708862304688	1132.45361328125	54.76157760620117	-799.9984130859375	918.5107421875	-114.5324478149414	-885.0313110351562	910.4183959960938	-103.2450714111328	-869.7598876953125	1048.97607421875	-51.54886627197266	-833.5089721679688	725.5765991210938	-137.0756072998047	-889.2547607421875	823.868896484375	-125.77783203125	-828.2289428710938	822.8313598632812	-157.7159881591797	-375.6284790039062	1449.996337890625	42.48876571655273	-315.8363037109375	1385.288696289062	78.39303588867188	-286.0078125	1106.806518554688	120.4342269897461	-379.8386535644531	1101.023315429688	138.4859161376953	-302.6168823242188	887.4148559570312	-13.06453895568848	-248.9715270996094	876.670654296875	51.61532592773438	-268.8782043457031	1037.5615234375	99.71469879150391	-296.4034729003906	691.384521484375	-20.41733169555664	-277.5831298828125	765.3079833984375	-42.10430908203125	-237.7515869140625	769.2459716796875	18.3597583770752	-497.32861328125	1660.835327148438	11.25697422027588	-489.9176940917969	1662.79296875	-215.6793060302734	-400.4720153808594	1658.224731445312	-170.5008087158203	-595.1516723632812	1663.239501953125	-89.25431060791016	-742.3541259765625	979.2076416015625	-21.33747291564941	-390.4315490722656	977.673828125	82.36534118652344	-398.1366577148438	1022.7919921875	-20.88650321960449	-666.4995727539062	1020.439025878906	-99.11237335205078	-646.3401489257812	522.78125	-182.4769744873047	-693.935302734375	653.7648315429688	-140.2000732421875	-662.2913208007812	36.22319793701172	-189.1047821044922	-662.3960571289062	290.9603881835938	-188.9869079589844	-496.2400207519531	45.05709075927734	-337.9331970214844	-498.0807189941406	43.52864074707031	-256.7102966308594	-651.4925537109375	44.87814712524414	-109.8644027709961	-465.2287902832031	494.581298828125	89.32618713378906	-392.3132629394531	750.4443969726562	40.2957649230957	-539.9142456054688	67.98593139648438	331.4588623046875	-497.7217407226562	375.9163208007812	118.7485580444336	-621.4061889648438	43.27371597290039	137.2993316650391	-651.2833862304688	49.04589080810547	199.1446075439453	-534.7925415039062	41.25518798828125	222.3086700439453	-585.2168579101562	95.06355285644531	400.3249816894531	-604.7749633789062	33.71845626831055	-304.6153564453125	
